<?xml version="1.0" encoding="UTF-8"?>
<svg id="b" data-name="Слой 2" xmlns="http://www.w3.org/2000/svg" width="119.84" height="114.28" viewBox="0 0 119.84 114.28">
  <defs>
    <style>
      .d {
        fill: #02ab9c;
      }
    </style>
  </defs>
  <g id="c" data-name="Слой 1">
    <g>
      <path class="d" d="M32.9,51.6l8.84-5.67c.5-.4,.85-1.02,.85-1.53V23.86c0-1.14-.86-1.9-1.67-1.9-.86,0-1.67,.81-1.67,1.67v18.71c0,.6-.3,1.15-.81,1.47l-8.84,5.67c-.5,.4-.85,1.02-.85,1.53v17.34c0,.66,.27,1.16,.73,1.34,.06,.02,.11,.05,.17,.08l8.67,4.56c.58,.3,.94,.9,.94,1.55v11.64c0,.86,.81,1.67,1.67,1.67s1.67-.81,1.67-1.67v-13.69c0-.66-.27-1.16-.73-1.34-.06-.02-.11-.05-.17-.08l-8.67-4.56c-.58-.3-.94-.9-.94-1.55v-13.24c0-.6,.3-1.15,.81-1.47Z"/>
      <path class="d" d="M55.46,5.81L44.56,.59c-.69-.26-1.24-.23-1.82,.12L15.7,18.67c-.39,.32-.64,.9-.64,1.54v13.69c0,.59-.29,1.14-.79,1.46L.81,44.26c-.06,.04-.12,.07-.18,.1-.3,.15-.63,.67-.63,1.17v30.35c0,.66,.27,1.16,.73,1.34,.05,.02,.1,.04,.15,.07l13.24,6.85c.58,.3,.95,.9,.95,1.55v11.18c0,.66,.27,1.16,.73,1.34,.06,.02,.11,.05,.17,.08l27.16,14.38c.27,.14,.66,.25,.79,.25,.23,0,.49,0,.57-.04l9.86-4.72c.77-.37,1.18-1.27,.88-2.07,0,0,0-.01,0-.02-.34-.89-1.37-1.3-2.22-.89l-8.33,4c-.24,.11-.5,.17-.76,.17-.29,0-.57-.07-.83-.21l-23.73-12.78c-.57-.31-.92-.9-.92-1.54v-8.9c0-.68,.4-1.31,1.02-1.59l5.39-2.47c.75-.46,1.28-1.46,.89-2.14-.44-.78-1.47-1.35-2.18-.95-.04,.03-.09,.05-.13,.07l-5.93,2.74c-.5,.23-1.07,.21-1.55-.04l-11.64-6.16c-.57-.3-.93-.9-.93-1.55v-26.47c0-.59,.3-1.14,.79-1.47,2.74-1.77,11.64-7.53,11.64-7.53,.5-.32,1.14-.37,1.68-.12l5.93,2.74s.09,.04,.14,.07c.37,.21,.77,.13,1.05,.03,.46-.17,.88-.54,1.13-.97,.21-.37,.13-.77,.03-1.05-.17-.44-.5-.84-.91-1.09l-5.39-2.47c-.62-.29-1.02-.91-1.02-1.59v-11.64c0-.59,.29-1.14,.79-1.46L43.38,4.83c.5-.33,1.15-.38,1.69-.13l8.44,3.88c.62,.29,1.02,.91,1.02,1.59v57.45c0,.86,.81,1.67,1.67,1.67s1.67-.81,1.67-1.67V10.17s0-3.51-2.43-4.35Z"/>
      <path class="d" d="M98.74,89.49c-.09-.41-.42-.72-.85-.79l-.71-.11c-.25-.04-.84-.24-1.02-.42-.24-.25-.36-.45-.42-.55l-.12-.69c-.09-.5-.51-.86-1.02-.86h-10.72s-.94-.06-.94-.06c-.5,0-.93,.36-1.02,.86l-.1,.68s-.1,.25-.45,.62c-.17,.18-.73,.38-1.02,.42l-.71,.11c-.42,.07-.75,.38-.84,.8l-.15,.7c-.04,.18-.92,4.41,1.43,10.54,2.44,6.36,7.68,8.54,7.9,8.63l.41,.17c.12,.05,.25,.07,.38,.07s.25-.02,.39-.08l.39-.16c.22-.09,5.46-2.25,7.91-8.63,2.35-6.13,1.47-10.36,1.43-10.54l-.16-.71Zm-4.1,10.16c-1.64,4.26-4.83,6.21-5.87,6.75-1.03-.53-4.21-2.44-5.86-6.75-1.54-4.02-1.49-7.04-1.38-8.25,.6-.18,1.43-.52,2.03-1.16,.42-.44,.69-.84,.87-1.16h8.68c.17,.32,.45,.72,.87,1.16,.6,.63,1.44,.98,2.04,1.16,.11,1.2,.17,4.23-1.38,8.25Z"/>
      <path class="d" d="M102.79,48.43h0s0-.62,0-.62c0-.57-.46-1.02-1.02-1.02h-4.04c-.55,0-1,.45-1,1v.8h0c-2.1,.77-3.84,2.26-4.91,4.17h0c-1.75,.5-3.02,2.08-3.02,3.96,0,1.43,.74,2.69,1.87,3.43h0v2.96c0,2.76,2.22,5.02,4.98,5.06h.15v.39c0,.54,.44,.98,.98,.98h6.43c.54,0,.98-.44,.98-.98v-.39h0c2.83,0,5.13-2.3,5.13-5.13v-3.25h0c.86-.76,1.4-1.85,1.4-3.07,0-1.66-1-3.09-2.44-3.74h0c-1.13-2.15-3.11-3.81-5.49-4.54Zm-9.8,11.5c-1.8,0-3.27-1.44-3.27-3.21s1.46-3.21,3.27-3.21c.27,0,.52,.04,.77,.1-.77,.25-1.33,.96-1.33,1.81,0,1.05,.86,1.91,1.91,1.91,.86,0,1.57-.57,1.82-1.35,.06,.24,.09,.48,.09,.73,0,1.77-1.46,3.21-3.27,3.21Zm6.53,4.58c-1.77,0-3.27-1.09-3.27-2.52,0-.38,.34-.69,.75-.69s.75,.31,.75,.69c0,.59,.76,1.15,1.76,1.15s1.76-.55,1.76-1.15c0-.38,.34-.69,.75-.69s.75,.31,.75,.69c0,1.43-1.49,2.52-3.27,2.52Zm7-4.58c-1.8,0-3.27-1.44-3.27-3.21s1.46-3.21,3.27-3.21c.27,0,.52,.04,.77,.1-.77,.25-1.33,.96-1.33,1.81,0,1.05,.86,1.91,1.91,1.91,.86,0,1.57-.57,1.82-1.35,.06,.24,.09,.48,.09,.73,0,1.77-1.46,3.21-3.27,3.21Z"/>
      <ellipse class="d" cx="88.78" cy="10.21" rx="8.75" ry="1.73"/>
      <path class="d" d="M88.78,17.01c4.64,0,8.42-.71,8.72-1.62h0v-.03s.02-.05,.02-.08-.01-.06-.02-.08v-2.44c0-.3-.26-.49-.49-.36-1.2,.67-4.43,1.15-8.24,1.15s-7.08-.49-8.26-1.16c-.22-.13-.48,.08-.48,.37v2.64h.03c.3,.9,4.08,1.62,8.72,1.62Z"/>
      <path class="d" d="M88.78,22.07c4.64,0,8.42-.71,8.72-1.62h0v-.03s.02-.05,.02-.08-.01-.06-.02-.08v-2.44c0-.3-.26-.49-.49-.36-1.2,.67-4.43,1.15-8.24,1.15s-7.08-.49-8.26-1.16c-.22-.13-.48,.08-.48,.37v2.64h.03c.3,.9,4.08,1.62,8.72,1.62Z"/>
      <path class="d" d="M88.78,27.14c4.64,0,8.42-.71,8.72-1.62h0v-.03s.02-.05,.02-.08-.01-.06-.02-.08v-2.44c0-.3-.26-.49-.49-.36-1.2,.67-4.43,1.15-8.24,1.15s-7.08-.49-8.26-1.16c-.22-.13-.48,.08-.48,.37v2.64h.03c.3,.9,4.08,1.62,8.72,1.62Z"/>
      <path class="d" d="M61.62,49.33h4.19c.83,0,1.5-.67,1.5-1.5V21.64h4.09c1.76,7.98,8.88,13.98,17.38,13.98,9.82,0,17.81-7.99,17.81-17.81S98.6,0,88.78,0s-17.81,7.99-17.81,17.81c0,.28,.03,.55,.04,.83h-5.21c-.83,0-1.5,.67-1.5,1.5v26.19h-2.69c-.83,0-1.5,.67-1.5,1.5s.67,1.5,1.5,1.5ZM88.78,3.3c8,0,14.51,6.51,14.51,14.51s-6.51,14.51-14.51,14.51-14.51-6.51-14.51-14.51,6.51-14.51,14.51-14.51Z"/>
      <path class="d" d="M88.78,78.66c-9.03,0-16.49,6.76-17.64,15.48h-3.84v-26.25c0-.83-.67-1.5-1.5-1.5h-4.19c-.83,0-1.5,.67-1.5,1.5s.67,1.5,1.5,1.5h2.69v26.25c0,.83,.67,1.5,1.5,1.5h5.2c.36,9.51,8.18,17.13,17.77,17.13s17.81-7.99,17.81-17.81-7.99-17.81-17.81-17.81Zm0,32.32c-8,0-14.51-6.51-14.51-14.51s6.51-14.51,14.51-14.51,14.51,6.51,14.51,14.51-6.51,14.51-14.51,14.51Z"/>
      <path class="d" d="M105.8,37.99c.1,.38,.17,.78,.17,1.19,0,.79-.21,1.52-.55,2.18,6.47,2.33,11.12,8.51,11.12,15.78,0,9.25-7.53,16.78-16.78,16.78s-16.78-7.53-16.78-16.78c0-8.22,5.95-15.06,13.76-16.49-.15-.46-.25-.95-.25-1.46,0-.67,.15-1.31,.4-1.9-9.42,1.36-16.74,9.27-17.16,18.96h-18.1c-.83,0-1.5,.67-1.5,1.5s.67,1.5,1.5,1.5h18.17c1.06,10.08,9.61,17.97,19.97,17.97,11.07,0,20.08-9.01,20.08-20.08,0-8.97-5.91-16.58-14.04-19.15Z"/>
      <path class="d" d="M101.27,37.06c-1.16,0-2.1,.93-2.1,2.07,0,.67,.33,1.28,.84,1.65h0v1.83c0,.13-.11,.24-.24,.24h-1.92c-.43,0-.79,.35-.79,.79v1.52c0,.43,.35,.79,.79,.79h.53c.43,0,.79-.35,.79-.79,0-.13,.11-.24,.24-.24h1.92c.43,0,.79-.35,.79-.79v-3.11s0,0,0,0c.74-.32,1.26-1.05,1.26-1.89,0-1.14-.94-2.07-2.1-2.07Z"/>
      <path class="d" d="M17.38,58.14v-5.18l.2-.15c.75-.58,1.41-1.08,2.04-1.55,.67-.5,.8-1.43,.31-2.1s-1.44-.8-2.1-.31c-.64,.48-1.31,.99-2.08,1.57l-.78,.6c-.37,.28-.59,.72-.59,1.19v14.7c0,.47,.22,.91,.59,1.19l.78,.6c.76,.58,1.43,1.09,2.08,1.57,.27,.2,.58,.3,.89,.3,.46,0,.91-.21,1.2-.6,.49-.67,.36-1.6-.31-2.1-.63-.47-1.29-.97-2.04-1.55l-.2-.15v-8.04Z"/>
      <path class="d" d="M44.63,99.21c.22,0,.44-.05,.65-.15l7.02-3.37c.52-.25,.85-.78,.85-1.35v-10.55c0-.83-.67-1.5-1.5-1.5s-1.5,.67-1.5,1.5v9.6l-6.17,2.96c-.75,.36-1.06,1.25-.7,2,.26,.54,.79,.85,1.35,.85Z"/>
      <path class="d" d="M48.98,28.15c.83,0,1.5-.67,1.5-1.5v-9.24c0-.58-.33-1.1-.85-1.35l-4.35-2.09c-.74-.36-1.64-.04-2,.7-.36,.75-.04,1.64,.7,2l3.5,1.68v8.29c0,.83,.67,1.5,1.5,1.5Z"/>
    </g>
  </g>
</svg>